<?xml version="1.0" encoding="UTF-8"?>
<svg id="b" data-name="图层 2" xmlns="http://www.w3.org/2000/svg" viewBox="0 0 50 50">
  <defs>
    <style>
      .d {
        fill: #0056b3;
      }

      .e {
        fill: #2b87d9;
      }

      .f {
        fill: #007bff;
      }
    </style>
  </defs>
  <g id="c" data-name="图层 1">
    <polygon class="d" points="12.89 18.49 12.89 50 0 50 0 .08 12.89 18.49"/>
    <polygon class="e" points="12.89 0 12.89 .05 12.86 0 12.89 0"/>
    <polygon class="f" points="30.42 25.07 26.86 38.35 26.79 38.35 25.83 36.97 17.45 25 12.89 18.49 0 .08 0 0 12.86 0 12.89 .05 30.36 25 30.42 25.07"/>
    <polygon class="f" points="39.72 38.35 39.63 38.35 39.66 38.27 39.72 38.35"/>
    <polygon class="d" points="37.11 .09 37.11 38.35 26.86 38.35 30.42 25.07 30.44 25 37.11 .09"/>
    <polygon class="f" points="30.36 25 30.44 25 30.42 25.07 30.36 25"/>
    <polygon class="f" points="39.66 38.27 39.72 38.35 39.63 38.35 39.66 38.27"/>
    <path class="f" d="M37.13,0l-.02.09v47.35l.11-.07-.11.4v2.23h12.89V0h-12.87ZM39.63,38.35l.03-.08.0601.08h-.09Z"/>
    <polygon class="d" points="37.13 0 37.11 .09 37.11 0 37.13 0"/>
    <polygon class="d" points="37.11 47.44 37.22 47.37 37.11 47.77 37.11 47.44"/>
    <polygon class="d" points="39.72 38.35 39.63 38.35 39.66 38.27 39.72 38.35"/>
  </g>
</svg>